<mxfile host="app.diagrams.net" agent="Mozilla/5.0 (Windows NT 10.0; Win64; x64) AppleWebKit/537.36 (KHTML, like Gecko) Chrome/128.0.0.0 Safari/537.36 Edg/128.0.0.0" version="24.7.14" pages="2">
  <diagram name="Page-1" id="96eW55LOET2FeZYNykx_">
    <mxGraphModel dx="3079" dy="1159" grid="0" gridSize="10" guides="1" tooltips="1" connect="1" arrows="1" fold="1" page="0" pageScale="1" pageWidth="827" pageHeight="1169" math="0" shadow="0">
      <root>
        <mxCell id="0" />
        <mxCell id="1" parent="0" />
        <mxCell id="NyeoUmcoHwlDgHE6x8Dt-88" value="&lt;font style=&quot;font-size: 20px;&quot;&gt;discussion&lt;/font&gt;" style="swimlane;whiteSpace=wrap;html=1;fillColor=#76608a;fontColor=#ffffff;strokeColor=#432D57;" parent="1" vertex="1">
          <mxGeometry x="-348" y="470" width="500" height="197" as="geometry" />
        </mxCell>
        <mxCell id="NyeoUmcoHwlDgHE6x8Dt-80" value="&lt;div&gt;- complaint&lt;br&gt;&lt;/div&gt;" style="text;strokeColor=none;fillColor=none;spacingLeft=4;spacingRight=4;overflow=hidden;rotatable=0;points=[[0,0.5],[1,0.5]];portConstraint=eastwest;fontSize=12;whiteSpace=wrap;html=1;" parent="NyeoUmcoHwlDgHE6x8Dt-88" vertex="1">
          <mxGeometry x="365" y="121" width="114" height="38" as="geometry" />
        </mxCell>
        <mxCell id="NyeoUmcoHwlDgHE6x8Dt-86" value="discussion" style="swimlane;childLayout=stackLayout;horizontal=1;startSize=50;horizontalStack=0;rounded=1;fontSize=14;fontStyle=0;strokeWidth=2;resizeParent=0;resizeLast=1;shadow=0;dashed=0;align=center;arcSize=4;whiteSpace=wrap;html=1;" parent="NyeoUmcoHwlDgHE6x8Dt-88" vertex="1">
          <mxGeometry x="10" y="35" width="160" height="150" as="geometry" />
        </mxCell>
        <mxCell id="NyeoUmcoHwlDgHE6x8Dt-87" value="&lt;div&gt;id: bigint PK&lt;/div&gt;&lt;div&gt;problem_id: FK(problem)&lt;/div&gt;&lt;div&gt;type: disscussion_type&lt;/div&gt;" style="align=left;strokeColor=none;fillColor=none;spacingLeft=4;fontSize=12;verticalAlign=top;resizable=0;rotatable=0;part=1;html=1;" parent="NyeoUmcoHwlDgHE6x8Dt-86" vertex="1">
          <mxGeometry y="50" width="160" height="100" as="geometry" />
        </mxCell>
        <mxCell id="NyeoUmcoHwlDgHE6x8Dt-76" value="comment" style="swimlane;childLayout=stackLayout;horizontal=1;startSize=50;horizontalStack=0;rounded=1;fontSize=14;fontStyle=0;strokeWidth=2;resizeParent=0;resizeLast=1;shadow=0;dashed=0;align=center;arcSize=4;whiteSpace=wrap;html=1;" parent="NyeoUmcoHwlDgHE6x8Dt-88" vertex="1">
          <mxGeometry x="176" y="35" width="179" height="150" as="geometry" />
        </mxCell>
        <mxCell id="NyeoUmcoHwlDgHE6x8Dt-77" value="&lt;div&gt;id: bigint PK&lt;/div&gt;&lt;div&gt;discussion_id: FK(discussion)&lt;/div&gt;&lt;div&gt;user_id: FK (user)&lt;br&gt;&lt;/div&gt;&lt;div&gt;message: varchar(500)&lt;/div&gt;&lt;div&gt;&lt;span data-darkreader-inline-color=&quot;&quot; data-darkreader-inline-bgcolor=&quot;&quot; style=&quot;background-color: initial; color: rgb(0, 0, 0); --darkreader-inline-bgcolor: initial; --darkreader-inline-color: #e8e6e3;&quot;&gt;date_add:&amp;nbsp;timestamptz&lt;br&gt;&lt;/span&gt;&lt;/div&gt;&lt;div&gt;&lt;span data-darkreader-inline-color=&quot;&quot; data-darkreader-inline-bgcolor=&quot;&quot; style=&quot;background-color: initial; color: rgb(0, 0, 0); --darkreader-inline-bgcolor: initial; --darkreader-inline-color: #e8e6e3;&quot;&gt;date_modify:&amp;nbsp;timestamptz NULL&lt;br&gt;&lt;/span&gt;&lt;/div&gt;" style="align=left;strokeColor=none;fillColor=none;spacingLeft=4;fontSize=12;verticalAlign=top;resizable=0;rotatable=0;part=1;html=1;" parent="NyeoUmcoHwlDgHE6x8Dt-76" vertex="1">
          <mxGeometry y="50" width="179" height="100" as="geometry" />
        </mxCell>
        <mxCell id="a0tiSSK0ztnCR_a300UC-19" value="discussion_type" style="swimlane;whiteSpace=wrap;html=1;" parent="NyeoUmcoHwlDgHE6x8Dt-88" vertex="1">
          <mxGeometry x="365" y="35" width="129" height="81.5" as="geometry" />
        </mxCell>
        <mxCell id="a0tiSSK0ztnCR_a300UC-20" value="&lt;div&gt;- problem&lt;/div&gt;&lt;div&gt;- chat&lt;/div&gt;" style="text;strokeColor=none;fillColor=none;spacingLeft=4;spacingRight=4;overflow=hidden;rotatable=0;points=[[0,0.5],[1,0.5]];portConstraint=eastwest;fontSize=12;whiteSpace=wrap;html=1;" parent="a0tiSSK0ztnCR_a300UC-19" vertex="1">
          <mxGeometry y="20.5" width="132" height="57" as="geometry" />
        </mxCell>
        <mxCell id="NyeoUmcoHwlDgHE6x8Dt-89" value="&lt;font style=&quot;font-size: 20px;&quot;&gt;offer&lt;/font&gt;" style="swimlane;whiteSpace=wrap;html=1;fillColor=#60a917;fontColor=#ffffff;strokeColor=#2D7600;" parent="1" vertex="1">
          <mxGeometry x="243" y="227" width="295" height="218" as="geometry" />
        </mxCell>
        <mxCell id="NyeoUmcoHwlDgHE6x8Dt-68" value="offer" style="swimlane;childLayout=stackLayout;horizontal=1;startSize=50;horizontalStack=0;rounded=1;fontSize=14;fontStyle=0;strokeWidth=2;resizeParent=0;resizeLast=1;shadow=0;dashed=0;align=center;arcSize=4;whiteSpace=wrap;html=1;" parent="NyeoUmcoHwlDgHE6x8Dt-89" vertex="1">
          <mxGeometry x="6" y="30" width="145" height="180" as="geometry" />
        </mxCell>
        <mxCell id="NyeoUmcoHwlDgHE6x8Dt-69" value="&lt;div&gt;id: bigint PK&lt;/div&gt;&lt;div&gt;problem_id: FK(problem)&lt;/div&gt;&lt;div&gt;teacher_id: FK(teacher)&lt;/div&gt;&lt;div&gt;text: text&lt;/div&gt;&lt;div&gt;status: offer_status_type&lt;/div&gt;&lt;div&gt;date_add:&amp;nbsp;timestamptz&lt;br&gt;&lt;/div&gt;" style="align=left;strokeColor=none;fillColor=none;spacingLeft=4;fontSize=12;verticalAlign=top;resizable=0;rotatable=0;part=1;html=1;" parent="NyeoUmcoHwlDgHE6x8Dt-68" vertex="1">
          <mxGeometry y="50" width="145" height="130" as="geometry" />
        </mxCell>
        <mxCell id="a0tiSSK0ztnCR_a300UC-17" value="offer_status_type" style="swimlane;whiteSpace=wrap;html=1;" parent="NyeoUmcoHwlDgHE6x8Dt-89" vertex="1">
          <mxGeometry x="157" y="30" width="133" height="74" as="geometry">
            <mxRectangle x="371" y="39" width="107" height="26" as="alternateBounds" />
          </mxGeometry>
        </mxCell>
        <mxCell id="a0tiSSK0ztnCR_a300UC-18" value="&lt;div&gt;- queue&lt;/div&gt;&lt;div&gt;- reject&lt;/div&gt;&lt;div&gt;- accept&lt;/div&gt;" style="text;strokeColor=none;fillColor=none;spacingLeft=4;spacingRight=4;overflow=hidden;rotatable=0;points=[[0,0.5],[1,0.5]];portConstraint=eastwest;fontSize=12;whiteSpace=wrap;html=1;" parent="a0tiSSK0ztnCR_a300UC-17" vertex="1">
          <mxGeometry y="20.5" width="131" height="53.5" as="geometry" />
        </mxCell>
        <mxCell id="NyeoUmcoHwlDgHE6x8Dt-84" value="&lt;div&gt;- invite&lt;/div&gt;&lt;div&gt;- comment (or to disscs)&lt;/div&gt;" style="text;strokeColor=none;fillColor=none;spacingLeft=4;spacingRight=4;overflow=hidden;rotatable=0;points=[[0,0.5],[1,0.5]];portConstraint=eastwest;fontSize=12;whiteSpace=wrap;html=1;" parent="NyeoUmcoHwlDgHE6x8Dt-89" vertex="1">
          <mxGeometry x="151" y="104" width="147" height="57" as="geometry" />
        </mxCell>
        <mxCell id="NyeoUmcoHwlDgHE6x8Dt-94" value="&lt;font style=&quot;font-size: 20px;&quot;&gt;feedback&lt;/font&gt;" style="swimlane;whiteSpace=wrap;html=1;fillColor=#d80073;fontColor=#ffffff;strokeColor=#A50040;startSize=23;" parent="1" vertex="1">
          <mxGeometry x="174" y="470" width="364" height="236" as="geometry" />
        </mxCell>
        <mxCell id="NyeoUmcoHwlDgHE6x8Dt-70" value="feedback" style="swimlane;childLayout=stackLayout;horizontal=1;startSize=50;horizontalStack=0;rounded=1;fontSize=14;fontStyle=0;strokeWidth=2;resizeParent=0;resizeLast=1;shadow=0;dashed=0;align=center;arcSize=4;whiteSpace=wrap;html=1;" parent="NyeoUmcoHwlDgHE6x8Dt-94" vertex="1">
          <mxGeometry x="9" y="30" width="160" height="180" as="geometry" />
        </mxCell>
        <mxCell id="NyeoUmcoHwlDgHE6x8Dt-71" value="&lt;div&gt;id: bigint PK&lt;/div&gt;&lt;div&gt;offer_id: FK(offer)&lt;/div&gt;&lt;div&gt;user_id: FK(user)&lt;/div&gt;&lt;div&gt;&lt;span data-darkreader-inline-color=&quot;&quot; data-darkreader-inline-bgcolor=&quot;&quot; style=&quot;background-color: initial; color: rgb(0, 0, 0); --darkreader-inline-bgcolor: initial; --darkreader-inline-color: #e8e6e3;&quot;&gt;reaction: reaction_type&lt;/span&gt;&lt;br&gt;&lt;/div&gt;&lt;div&gt;date_add:&amp;nbsp;timestamptz&lt;br&gt;&lt;/div&gt;" style="align=left;strokeColor=none;fillColor=none;spacingLeft=4;fontSize=12;verticalAlign=top;resizable=0;rotatable=0;part=1;html=1;" parent="NyeoUmcoHwlDgHE6x8Dt-70" vertex="1">
          <mxGeometry y="50" width="160" height="130" as="geometry" />
        </mxCell>
        <mxCell id="NyeoUmcoHwlDgHE6x8Dt-85" value="&lt;div&gt;- appeal&lt;/div&gt;" style="text;strokeColor=none;fillColor=none;spacingLeft=4;spacingRight=4;overflow=hidden;rotatable=0;points=[[0,0.5],[1,0.5]];portConstraint=eastwest;fontSize=12;whiteSpace=wrap;html=1;" parent="NyeoUmcoHwlDgHE6x8Dt-94" vertex="1">
          <mxGeometry x="9" y="208" width="80" height="38" as="geometry" />
        </mxCell>
        <mxCell id="t4K0XGtpMnaTUN9TsEC5-1" value="opinion" style="swimlane;childLayout=stackLayout;horizontal=1;startSize=50;horizontalStack=0;rounded=1;fontSize=14;fontStyle=0;strokeWidth=2;resizeParent=0;resizeLast=1;shadow=0;dashed=0;align=center;arcSize=4;whiteSpace=wrap;html=1;" parent="NyeoUmcoHwlDgHE6x8Dt-94" vertex="1">
          <mxGeometry x="176" y="30" width="179" height="180" as="geometry" />
        </mxCell>
        <mxCell id="t4K0XGtpMnaTUN9TsEC5-2" value="&lt;div&gt;id: bigint PK&lt;/div&gt;&lt;div&gt;feedback_id: FK(feedback)&lt;/div&gt;&lt;div&gt;value: text&lt;/div&gt;&lt;div&gt;date_add: timestamptz&lt;/div&gt;&lt;div&gt;date_modify&lt;span data-darkreader-inline-color=&quot;&quot; data-darkreader-inline-bgcolor=&quot;&quot; style=&quot;background-color: initial; color: rgb(0, 0, 0); --darkreader-inline-bgcolor: initial; --darkreader-inline-color: #e8e6e3;&quot;&gt;: timestamptz NULL&lt;/span&gt;&lt;/div&gt;" style="align=left;strokeColor=none;fillColor=none;spacingLeft=4;fontSize=12;verticalAlign=top;resizable=0;rotatable=0;part=1;html=1;" parent="t4K0XGtpMnaTUN9TsEC5-1" vertex="1">
          <mxGeometry y="50" width="179" height="130" as="geometry" />
        </mxCell>
        <mxCell id="NyeoUmcoHwlDgHE6x8Dt-96" value="&lt;font style=&quot;font-size: 20px;&quot;&gt;profile&lt;/font&gt;" style="swimlane;whiteSpace=wrap;html=1;fillColor=#0050ef;fontColor=#ffffff;strokeColor=#001DBC;startSize=23;" parent="1" vertex="1">
          <mxGeometry x="-601" y="52" width="460" height="379" as="geometry" />
        </mxCell>
        <mxCell id="NyeoUmcoHwlDgHE6x8Dt-58" value="user" style="swimlane;childLayout=stackLayout;horizontal=1;startSize=50;horizontalStack=0;rounded=1;fontSize=14;fontStyle=0;strokeWidth=2;resizeParent=0;resizeLast=1;shadow=0;dashed=0;align=center;arcSize=4;whiteSpace=wrap;html=1;" parent="NyeoUmcoHwlDgHE6x8Dt-96" vertex="1">
          <mxGeometry x="8" y="32.5" width="160" height="195" as="geometry" />
        </mxCell>
        <mxCell id="NyeoUmcoHwlDgHE6x8Dt-59" value="id: bigint PK&lt;div&gt;email: varchar(320)&lt;/div&gt;&lt;div&gt;password:&amp;nbsp;&lt;span data-darkreader-inline-bgcolor=&quot;&quot; style=&quot;background-color: initial; --darkreader-inline-bgcolor: initial;&quot;&gt;sha256&lt;/span&gt;&lt;/div&gt;&lt;div&gt;&lt;span data-darkreader-inline-color=&quot;&quot; data-darkreader-inline-bgcolor=&quot;&quot; style=&quot;background-color: initial; color: rgb(0, 0, 0); --darkreader-inline-bgcolor: initial; --darkreader-inline-color: #e8e6e3;&quot;&gt;type: user_type&lt;/span&gt;&lt;/div&gt;&lt;div&gt;first_name: varchar(35)&lt;/div&gt;&lt;div&gt;last_name&lt;span data-darkreader-inline-color=&quot;&quot; data-darkreader-inline-bgcolor=&quot;&quot; style=&quot;background-color: initial; color: rgb(0, 0, 0); --darkreader-inline-bgcolor: initial; --darkreader-inline-color: #e8e6e3;&quot;&gt;: varchar(35)&lt;/span&gt;&lt;/div&gt;&lt;div&gt;phone: varchar(15) NULL&lt;br&gt;&lt;/div&gt;&lt;div&gt;contacts: jsonb&lt;/div&gt;&lt;div&gt;date_add: timestamptz&lt;/div&gt;" style="align=left;strokeColor=none;fillColor=none;spacingLeft=4;fontSize=12;verticalAlign=top;resizable=0;rotatable=0;part=1;html=1;" parent="NyeoUmcoHwlDgHE6x8Dt-58" vertex="1">
          <mxGeometry y="50" width="160" height="145" as="geometry" />
        </mxCell>
        <mxCell id="NyeoUmcoHwlDgHE6x8Dt-62" value="teacher" style="swimlane;childLayout=stackLayout;horizontal=1;startSize=50;horizontalStack=0;rounded=1;fontSize=14;fontStyle=0;strokeWidth=2;resizeParent=0;resizeLast=1;shadow=0;dashed=0;align=center;arcSize=4;whiteSpace=wrap;html=1;" parent="NyeoUmcoHwlDgHE6x8Dt-96" vertex="1">
          <mxGeometry x="8" y="238" width="160" height="131" as="geometry" />
        </mxCell>
        <mxCell id="NyeoUmcoHwlDgHE6x8Dt-63" value="&lt;div&gt;id: bigint PK&lt;/div&gt;&lt;div&gt;user_id: FK(user)&lt;/div&gt;&lt;div&gt;certificates: jsonb&lt;br&gt;&lt;/div&gt;&lt;div&gt;subjects: subject_type[]&lt;br&gt;&lt;/div&gt;" style="align=left;strokeColor=none;fillColor=none;spacingLeft=4;fontSize=12;verticalAlign=top;resizable=0;rotatable=0;part=1;html=1;" parent="NyeoUmcoHwlDgHE6x8Dt-62" vertex="1">
          <mxGeometry y="50" width="160" height="81" as="geometry" />
        </mxCell>
        <mxCell id="NyeoUmcoHwlDgHE6x8Dt-64" value="parent" style="swimlane;childLayout=stackLayout;horizontal=1;startSize=50;horizontalStack=0;rounded=1;fontSize=14;fontStyle=0;strokeWidth=2;resizeParent=0;resizeLast=1;shadow=0;dashed=0;align=center;arcSize=4;whiteSpace=wrap;html=1;" parent="NyeoUmcoHwlDgHE6x8Dt-96" vertex="1">
          <mxGeometry x="177" y="32.5" width="160" height="194.5" as="geometry">
            <mxRectangle x="177" y="32.5" width="75" height="50" as="alternateBounds" />
          </mxGeometry>
        </mxCell>
        <mxCell id="NyeoUmcoHwlDgHE6x8Dt-65" value="&lt;div&gt;id: bigint PK&lt;/div&gt;&lt;div&gt;user_id: FK(user)&lt;/div&gt;&lt;div&gt;address: varchar(500) NULL&lt;/div&gt;" style="align=left;strokeColor=none;fillColor=none;spacingLeft=4;fontSize=12;verticalAlign=top;resizable=0;rotatable=0;part=1;html=1;" parent="NyeoUmcoHwlDgHE6x8Dt-64" vertex="1">
          <mxGeometry y="50" width="160" height="144.5" as="geometry" />
        </mxCell>
        <mxCell id="NyeoUmcoHwlDgHE6x8Dt-101" value="child" style="swimlane;childLayout=stackLayout;horizontal=1;startSize=50;horizontalStack=0;rounded=1;fontSize=14;fontStyle=0;strokeWidth=2;resizeParent=0;resizeLast=1;shadow=0;dashed=0;align=center;arcSize=4;whiteSpace=wrap;html=1;" parent="NyeoUmcoHwlDgHE6x8Dt-96" vertex="1">
          <mxGeometry x="177" y="238" width="160" height="132" as="geometry" />
        </mxCell>
        <mxCell id="NyeoUmcoHwlDgHE6x8Dt-102" value="&lt;div&gt;id: bigint PK&lt;/div&gt;&lt;div&gt;parent_id: FK(parent)&lt;/div&gt;&lt;div&gt;first_name: varchar(35)&lt;/div&gt;&lt;div&gt;last_name&lt;span data-darkreader-inline-color=&quot;&quot; data-darkreader-inline-bgcolor=&quot;&quot; style=&quot;background-color: initial; color: rgb(0, 0, 0); --darkreader-inline-bgcolor: initial; --darkreader-inline-color: #e8e6e3;&quot;&gt;: varchar(35)&lt;/span&gt;&lt;/div&gt;&lt;div&gt;date_of_birth: timestamptz&lt;br&gt;&lt;/div&gt;" style="align=left;strokeColor=none;fillColor=none;spacingLeft=4;fontSize=12;verticalAlign=top;resizable=0;rotatable=0;part=1;html=1;" parent="NyeoUmcoHwlDgHE6x8Dt-101" vertex="1">
          <mxGeometry y="50" width="160" height="82" as="geometry" />
        </mxCell>
        <mxCell id="NyeoUmcoHwlDgHE6x8Dt-105" value="&lt;div&gt;- balance&lt;/div&gt;&lt;div&gt;- auth&lt;/div&gt;&lt;div&gt;- friend&lt;/div&gt;&lt;div&gt;- admin&lt;/div&gt;" style="text;strokeColor=none;fillColor=none;spacingLeft=4;spacingRight=4;overflow=hidden;rotatable=0;points=[[0,0.5],[1,0.5]];portConstraint=eastwest;fontSize=12;whiteSpace=wrap;html=1;" parent="NyeoUmcoHwlDgHE6x8Dt-96" vertex="1">
          <mxGeometry x="346" y="223" width="85" height="70" as="geometry" />
        </mxCell>
        <mxCell id="a0tiSSK0ztnCR_a300UC-6" value="user_type" style="swimlane;whiteSpace=wrap;html=1;" parent="NyeoUmcoHwlDgHE6x8Dt-96" vertex="1">
          <mxGeometry x="346" y="32.5" width="91" height="81.5" as="geometry" />
        </mxCell>
        <mxCell id="a0tiSSK0ztnCR_a300UC-10" value="&lt;div&gt;- parent&lt;/div&gt;&lt;div&gt;- teacher&lt;/div&gt;&lt;div&gt;- admin&lt;/div&gt;&lt;div&gt;&lt;br&gt;&lt;/div&gt;" style="text;strokeColor=none;fillColor=none;spacingLeft=4;spacingRight=4;overflow=hidden;rotatable=0;points=[[0,0.5],[1,0.5]];portConstraint=eastwest;fontSize=12;whiteSpace=wrap;html=1;" parent="a0tiSSK0ztnCR_a300UC-6" vertex="1">
          <mxGeometry y="20.5" width="132" height="57" as="geometry" />
        </mxCell>
        <mxCell id="a0tiSSK0ztnCR_a300UC-11" value="subject_type" style="swimlane;whiteSpace=wrap;html=1;" parent="NyeoUmcoHwlDgHE6x8Dt-96" vertex="1">
          <mxGeometry x="346" y="126" width="106" height="81.5" as="geometry" />
        </mxCell>
        <mxCell id="a0tiSSK0ztnCR_a300UC-12" value="&lt;div&gt;- english&lt;/div&gt;&lt;div&gt;- math&lt;/div&gt;&lt;div&gt;- physics&lt;/div&gt;" style="text;strokeColor=none;fillColor=none;spacingLeft=4;spacingRight=4;overflow=hidden;rotatable=0;points=[[0,0.5],[1,0.5]];portConstraint=eastwest;fontSize=12;whiteSpace=wrap;html=1;" parent="a0tiSSK0ztnCR_a300UC-11" vertex="1">
          <mxGeometry y="20.5" width="132" height="57" as="geometry" />
        </mxCell>
        <mxCell id="NyeoUmcoHwlDgHE6x8Dt-97" value="&lt;font style=&quot;font-size: 20px;&quot;&gt;problem&lt;/font&gt;" style="swimlane;whiteSpace=wrap;html=1;startSize=23;fillColor=#e51400;fontColor=#ffffff;strokeColor=#B20000;" parent="1" vertex="1">
          <mxGeometry x="-130" y="227" width="358" height="225" as="geometry">
            <mxRectangle x="-130" y="227" width="107" height="36" as="alternateBounds" />
          </mxGeometry>
        </mxCell>
        <mxCell id="NyeoUmcoHwlDgHE6x8Dt-66" value="problem" style="swimlane;childLayout=stackLayout;horizontal=1;startSize=50;horizontalStack=0;rounded=1;fontSize=14;fontStyle=0;strokeWidth=2;resizeParent=0;resizeLast=1;shadow=0;dashed=0;align=center;arcSize=4;whiteSpace=wrap;html=1;" parent="NyeoUmcoHwlDgHE6x8Dt-97" vertex="1">
          <mxGeometry x="6" y="29" width="182" height="189" as="geometry" />
        </mxCell>
        <mxCell id="NyeoUmcoHwlDgHE6x8Dt-67" value="&lt;div&gt;id: bigint PK&lt;/div&gt;&lt;div&gt;&lt;div&gt;parent_id: FK(parent)&lt;/div&gt;&lt;div&gt;child_id: FK(child)&lt;/div&gt;&lt;/div&gt;&lt;div&gt;title: varchar(100)&lt;/div&gt;&lt;div&gt;description: text&lt;/div&gt;&lt;div&gt;subject: subject_type&lt;/div&gt;&lt;div&gt;status: problem_status&lt;/div&gt;&lt;div&gt;date_add: timestamptz&lt;br&gt;&lt;/div&gt;&lt;div&gt;date_modify:&amp;nbsp;&lt;span data-darkreader-inline-color=&quot;&quot; data-darkreader-inline-bgcolor=&quot;&quot; style=&quot;background-color: initial; color: rgb(0, 0, 0); --darkreader-inline-bgcolor: initial; --darkreader-inline-color: #e8e6e3;&quot;&gt;timestamptz NULL&lt;/span&gt;&lt;br&gt;&lt;/div&gt;" style="align=left;strokeColor=none;fillColor=none;spacingLeft=4;fontSize=12;verticalAlign=top;resizable=0;rotatable=0;part=1;html=1;" parent="NyeoUmcoHwlDgHE6x8Dt-66" vertex="1">
          <mxGeometry y="50" width="182" height="139" as="geometry" />
        </mxCell>
        <mxCell id="NyeoUmcoHwlDgHE6x8Dt-103" value="&lt;div&gt;- address&lt;/div&gt;&lt;div&gt;- description&lt;/div&gt;&lt;div&gt;- cost&lt;/div&gt;" style="text;strokeColor=none;fillColor=none;spacingLeft=4;spacingRight=4;overflow=hidden;rotatable=0;points=[[0,0.5],[1,0.5]];portConstraint=eastwest;fontSize=12;whiteSpace=wrap;html=1;" parent="NyeoUmcoHwlDgHE6x8Dt-97" vertex="1">
          <mxGeometry x="194" y="136" width="128" height="52" as="geometry" />
        </mxCell>
        <mxCell id="a0tiSSK0ztnCR_a300UC-21" value="problem_status_type" style="swimlane;whiteSpace=wrap;html=1;" parent="NyeoUmcoHwlDgHE6x8Dt-97" vertex="1">
          <mxGeometry x="194" y="29" width="156" height="104" as="geometry" />
        </mxCell>
        <mxCell id="a0tiSSK0ztnCR_a300UC-22" value="&lt;div&gt;- search&lt;/div&gt;&lt;div&gt;- review&lt;/div&gt;&lt;div&gt;- progress&lt;/div&gt;&lt;div&gt;&lt;span data-darkreader-inline-color=&quot;&quot; data-darkreader-inline-bgcolor=&quot;&quot; style=&quot;background-color: initial; color: rgb(0, 0, 0); --darkreader-inline-bgcolor: initial; --darkreader-inline-color: #e8e6e3;&quot;&gt;- done&lt;/span&gt;&lt;br&gt;&lt;/div&gt;&lt;div&gt;- reject&lt;br&gt;&lt;/div&gt;" style="text;strokeColor=none;fillColor=none;spacingLeft=4;spacingRight=4;overflow=hidden;rotatable=0;points=[[0,0.5],[1,0.5]];portConstraint=eastwest;fontSize=12;whiteSpace=wrap;html=1;" parent="a0tiSSK0ztnCR_a300UC-21" vertex="1">
          <mxGeometry y="20.5" width="132" height="83.5" as="geometry" />
        </mxCell>
        <mxCell id="NyeoUmcoHwlDgHE6x8Dt-100" value="&lt;font style=&quot;font-size: 20px;&quot;&gt;reputation&lt;/font&gt;" style="swimlane;whiteSpace=wrap;html=1;fillColor=#f0a30a;fontColor=#000000;strokeColor=#BD7000;" parent="1" vertex="1">
          <mxGeometry x="-38" y="1" width="475" height="210" as="geometry" />
        </mxCell>
        <mxCell id="NyeoUmcoHwlDgHE6x8Dt-81" value="discussion" style="swimlane;childLayout=stackLayout;horizontal=1;startSize=50;horizontalStack=0;rounded=1;fontSize=14;fontStyle=0;strokeWidth=2;resizeParent=0;resizeLast=1;shadow=0;dashed=0;align=center;arcSize=4;whiteSpace=wrap;html=1;" parent="NyeoUmcoHwlDgHE6x8Dt-100" vertex="1">
          <mxGeometry x="192" y="31" width="153" height="137" as="geometry" />
        </mxCell>
        <mxCell id="NyeoUmcoHwlDgHE6x8Dt-82" value="&lt;div&gt;id: bigint PK&lt;/div&gt;&lt;div&gt;&lt;span data-darkreader-inline-color=&quot;&quot; data-darkreader-inline-bgcolor=&quot;&quot; style=&quot;background-color: initial; color: rgb(0, 0, 0); --darkreader-inline-bgcolor: initial; --darkreader-inline-color: #e8e6e3;&quot;&gt;comment_id: FK(comment)&lt;/span&gt;&lt;br&gt;&lt;/div&gt;&lt;div&gt;user_id: FK(user)&lt;br&gt;&lt;/div&gt;&lt;div&gt;reaction: reaction_type&lt;/div&gt;&lt;div&gt;date_add: timestamptz&lt;br&gt;&lt;/div&gt;" style="align=left;strokeColor=none;fillColor=none;spacingLeft=4;fontSize=12;verticalAlign=top;resizable=0;rotatable=0;part=1;html=1;" parent="NyeoUmcoHwlDgHE6x8Dt-81" vertex="1">
          <mxGeometry y="50" width="153" height="87" as="geometry" />
        </mxCell>
        <mxCell id="NyeoUmcoHwlDgHE6x8Dt-83" value="&lt;div&gt;- offer&lt;/div&gt;- certificate (optimization)" style="text;strokeColor=none;fillColor=none;spacingLeft=4;spacingRight=4;overflow=hidden;rotatable=0;points=[[0,0.5],[1,0.5]];portConstraint=eastwest;fontSize=12;whiteSpace=wrap;html=1;" parent="NyeoUmcoHwlDgHE6x8Dt-100" vertex="1">
          <mxGeometry x="5" y="170" width="160" height="38" as="geometry" />
        </mxCell>
        <mxCell id="t4K0XGtpMnaTUN9TsEC5-3" value="metric" style="swimlane;childLayout=stackLayout;horizontal=1;startSize=50;horizontalStack=0;rounded=1;fontSize=14;fontStyle=0;strokeWidth=2;resizeParent=0;resizeLast=1;shadow=0;dashed=0;align=center;arcSize=4;whiteSpace=wrap;html=1;" parent="NyeoUmcoHwlDgHE6x8Dt-100" vertex="1">
          <mxGeometry x="7" y="31" width="177" height="137" as="geometry" />
        </mxCell>
        <mxCell id="t4K0XGtpMnaTUN9TsEC5-4" value="&lt;div&gt;id: bigint PK&lt;/div&gt;&lt;div&gt;&lt;div&gt;writer_id: FK(admin)&lt;/div&gt;&lt;/div&gt;&lt;div&gt;&lt;span data-darkreader-inline-color=&quot;&quot; data-darkreader-inline-bgcolor=&quot;&quot; style=&quot;background-color: initial; color: rgb(0, 0, 0); --darkreader-inline-bgcolor: initial; --darkreader-inline-color: #e8e6e3;&quot;&gt;type: metric_type&lt;/span&gt;&lt;br&gt;&lt;/div&gt;&lt;div&gt;value: integer&lt;/div&gt;&lt;div&gt;&lt;span data-darkreader-inline-color=&quot;&quot; data-darkreader-inline-bgcolor=&quot;&quot; style=&quot;background-color: initial; color: rgb(0, 0, 0); --darkreader-inline-bgcolor: initial; --darkreader-inline-color: #e8e6e3;&quot;&gt;date_modify: timestamptz NULL&lt;/span&gt;&lt;br&gt;&lt;/div&gt;" style="align=left;strokeColor=none;fillColor=none;spacingLeft=4;fontSize=12;verticalAlign=top;resizable=0;rotatable=0;part=1;html=1;" parent="t4K0XGtpMnaTUN9TsEC5-3" vertex="1">
          <mxGeometry y="50" width="177" height="87" as="geometry" />
        </mxCell>
        <mxCell id="a0tiSSK0ztnCR_a300UC-13" value="reaction_type" style="swimlane;whiteSpace=wrap;html=1;" parent="NyeoUmcoHwlDgHE6x8Dt-100" vertex="1">
          <mxGeometry x="354" y="31" width="115" height="68" as="geometry">
            <mxRectangle x="371" y="39" width="107" height="26" as="alternateBounds" />
          </mxGeometry>
        </mxCell>
        <mxCell id="a0tiSSK0ztnCR_a300UC-14" value="&lt;div&gt;- up&lt;/div&gt;&lt;div&gt;- down&lt;/div&gt;" style="text;strokeColor=none;fillColor=none;spacingLeft=4;spacingRight=4;overflow=hidden;rotatable=0;points=[[0,0.5],[1,0.5]];portConstraint=eastwest;fontSize=12;whiteSpace=wrap;html=1;" parent="a0tiSSK0ztnCR_a300UC-13" vertex="1">
          <mxGeometry y="20.5" width="66" height="44.5" as="geometry" />
        </mxCell>
        <mxCell id="a0tiSSK0ztnCR_a300UC-15" value="metric_type" style="swimlane;whiteSpace=wrap;html=1;" parent="NyeoUmcoHwlDgHE6x8Dt-100" vertex="1">
          <mxGeometry x="354" y="110" width="115" height="68" as="geometry">
            <mxRectangle x="371" y="39" width="107" height="26" as="alternateBounds" />
          </mxGeometry>
        </mxCell>
        <mxCell id="a0tiSSK0ztnCR_a300UC-16" value="&lt;div&gt;- discussion&lt;/div&gt;&lt;div&gt;- feedback&lt;/div&gt;" style="text;strokeColor=none;fillColor=none;spacingLeft=4;spacingRight=4;overflow=hidden;rotatable=0;points=[[0,0.5],[1,0.5]];portConstraint=eastwest;fontSize=12;whiteSpace=wrap;html=1;" parent="a0tiSSK0ztnCR_a300UC-15" vertex="1">
          <mxGeometry y="20.5" width="103" height="44.5" as="geometry" />
        </mxCell>
        <mxCell id="pfimwthTi9PGoxtoohEt-1" value="schema (with color)" style="swimlane;whiteSpace=wrap;html=1;fillColor=#ffe6cc;strokeColor=#d79b00;" parent="1" vertex="1">
          <mxGeometry x="-306" y="-242" width="200" height="200" as="geometry" />
        </mxCell>
        <mxCell id="pfimwthTi9PGoxtoohEt-2" value="enum" style="swimlane;whiteSpace=wrap;html=1;" parent="1" vertex="1">
          <mxGeometry x="94" y="-241" width="182" height="198" as="geometry" />
        </mxCell>
        <mxCell id="pfimwthTi9PGoxtoohEt-3" value="&lt;div&gt;- item1&lt;/div&gt;&lt;div&gt;- item2&lt;br&gt;&lt;/div&gt;&lt;div&gt;- item3&lt;br&gt;&lt;/div&gt;" style="text;strokeColor=none;fillColor=none;spacingLeft=4;spacingRight=4;overflow=hidden;rotatable=0;points=[[0,0.5],[1,0.5]];portConstraint=eastwest;fontSize=12;whiteSpace=wrap;html=1;" parent="pfimwthTi9PGoxtoohEt-2" vertex="1">
          <mxGeometry y="20.5" width="132" height="57" as="geometry" />
        </mxCell>
        <mxCell id="pfimwthTi9PGoxtoohEt-4" value="table" style="swimlane;childLayout=stackLayout;horizontal=1;startSize=50;horizontalStack=0;rounded=1;fontSize=14;fontStyle=0;strokeWidth=2;resizeParent=0;resizeLast=1;shadow=0;dashed=0;align=center;arcSize=4;whiteSpace=wrap;html=1;" parent="1" vertex="1">
          <mxGeometry x="-86" y="-242" width="160" height="200" as="geometry">
            <mxRectangle x="177" y="32.5" width="75" height="50" as="alternateBounds" />
          </mxGeometry>
        </mxCell>
        <mxCell id="pfimwthTi9PGoxtoohEt-5" value="&lt;div&gt;column: type&lt;/div&gt;" style="align=left;strokeColor=none;fillColor=none;spacingLeft=4;fontSize=12;verticalAlign=top;resizable=0;rotatable=0;part=1;html=1;" parent="pfimwthTi9PGoxtoohEt-4" vertex="1">
          <mxGeometry y="50" width="160" height="150" as="geometry" />
        </mxCell>
        <mxCell id="pfimwthTi9PGoxtoohEt-6" value="&lt;div&gt;- table1&lt;/div&gt;&lt;div&gt;- table2&lt;br&gt;&lt;/div&gt;&lt;div&gt;- table3&lt;br&gt;&lt;/div&gt;" style="text;strokeColor=none;fillColor=none;spacingLeft=4;spacingRight=4;overflow=hidden;rotatable=0;points=[[0,0.5],[1,0.5]];portConstraint=eastwest;fontSize=12;whiteSpace=wrap;html=1;" parent="1" vertex="1">
          <mxGeometry x="290" y="-213" width="132" height="57" as="geometry" />
        </mxCell>
        <mxCell id="0yMVOpGgIwG3QnMwIZxU-3" value="teacher" style="swimlane;childLayout=stackLayout;horizontal=1;startSize=50;horizontalStack=0;rounded=1;fontSize=14;fontStyle=0;strokeWidth=2;resizeParent=0;resizeLast=1;shadow=0;dashed=0;align=center;arcSize=4;whiteSpace=wrap;html=1;" parent="1" vertex="1">
          <mxGeometry x="-1286" y="265" width="160" height="131" as="geometry" />
        </mxCell>
        <mxCell id="0yMVOpGgIwG3QnMwIZxU-4" value="&lt;div&gt;id: bigint PK&lt;/div&gt;&lt;div&gt;user_id: FK(user)&lt;/div&gt;&lt;div&gt;certificates: jsonb&lt;/div&gt;" style="align=left;strokeColor=none;fillColor=none;spacingLeft=4;fontSize=12;verticalAlign=top;resizable=0;rotatable=0;part=1;html=1;" parent="0yMVOpGgIwG3QnMwIZxU-3" vertex="1">
          <mxGeometry y="50" width="160" height="81" as="geometry" />
        </mxCell>
        <mxCell id="0yMVOpGgIwG3QnMwIZxU-5" value="teacher_subject" style="swimlane;childLayout=stackLayout;horizontal=1;startSize=50;horizontalStack=0;rounded=1;fontSize=14;fontStyle=0;strokeWidth=2;resizeParent=0;resizeLast=1;shadow=0;dashed=0;align=center;arcSize=4;whiteSpace=wrap;html=1;" parent="1" vertex="1">
          <mxGeometry x="-1106" y="265" width="160" height="131" as="geometry" />
        </mxCell>
        <mxCell id="0yMVOpGgIwG3QnMwIZxU-6" value="&lt;div&gt;teacher_id: FK(teacher)&lt;/div&gt;&lt;div&gt;subject_id: FK(subject)&lt;/div&gt;" style="align=left;strokeColor=none;fillColor=none;spacingLeft=4;fontSize=12;verticalAlign=top;resizable=0;rotatable=0;part=1;html=1;" parent="0yMVOpGgIwG3QnMwIZxU-5" vertex="1">
          <mxGeometry y="50" width="160" height="81" as="geometry" />
        </mxCell>
        <mxCell id="0yMVOpGgIwG3QnMwIZxU-7" value="subject" style="swimlane;childLayout=stackLayout;horizontal=1;startSize=50;horizontalStack=0;rounded=1;fontSize=14;fontStyle=0;strokeWidth=2;resizeParent=0;resizeLast=1;shadow=0;dashed=0;align=center;arcSize=4;whiteSpace=wrap;html=1;" parent="1" vertex="1">
          <mxGeometry x="-924" y="265" width="160" height="131" as="geometry" />
        </mxCell>
        <mxCell id="0yMVOpGgIwG3QnMwIZxU-8" value="&lt;div&gt;id: bigint PK&lt;/div&gt;&lt;div&gt;value: varchar(100)&lt;/div&gt;" style="align=left;strokeColor=none;fillColor=none;spacingLeft=4;fontSize=12;verticalAlign=top;resizable=0;rotatable=0;part=1;html=1;" parent="0yMVOpGgIwG3QnMwIZxU-7" vertex="1">
          <mxGeometry y="50" width="160" height="81" as="geometry" />
        </mxCell>
      </root>
    </mxGraphModel>
  </diagram>
  <diagram id="O35Y9euEdbY8u1NXPlhk" name="Page-2">
    <mxGraphModel dx="1479" dy="759" grid="1" gridSize="10" guides="1" tooltips="1" connect="1" arrows="1" fold="1" page="1" pageScale="1" pageWidth="827" pageHeight="1169" math="0" shadow="0">
      <root>
        <mxCell id="0" />
        <mxCell id="1" parent="0" />
      </root>
    </mxGraphModel>
  </diagram>
</mxfile>
